<?xml version="1.0" standalone="no"?>
<!DOCTYPE svg PUBLIC "-//W3C//DTD SVG 20010904//EN"
 "http://www.w3.org/TR/2001/REC-SVG-20010904/DTD/svg10.dtd">
<svg version="1.0" xmlns="http://www.w3.org/2000/svg"
 width="200.000000pt" height="200.000000pt" viewBox="0 0 200.000000 200.000000"
 preserveAspectRatio="xMidYMid meet">

<g transform="translate(0.000000,200.000000) scale(0.100000,-0.100000)"
fill="#000000" stroke="none">
<path d="M745 1920 c-3 -5 -2 -10 4 -10 5 0 13 5 16 10 3 6 2 10 -4 10 -5 0
-13 -4 -16 -10z"/>
<path d="M553 1884 c-3 -9 -3 -234 0 -500 3 -266 2 -486 -3 -489 -13 -8 -20
207 -19 593 0 206 -2 376 -5 379 -3 3 -27 -8 -53 -24 l-48 -30 0 -124 0 -124
-50 4 c-27 2 -62 9 -77 17 -31 16 -68 18 -68 4 0 -5 -11 -10 -24 -10 -19 0
-36 -16 -36 -35 0 -1 57 -6 127 -10 71 -4 139 -9 153 -10 14 -2 33 -4 43 -4
10 -1 17 -9 17 -22 0 -21 -2 -21 -132 -13 -73 5 -158 9 -188 9 l-55 0 -32 -65
c-61 -123 -103 -304 -103 -441 l0 -57 65 4 c36 1 69 6 75 9 5 3 10 1 10 -5 0
-7 6 -8 19 0 11 5 30 10 43 9 13 0 75 2 138 5 161 7 107 -10 -72 -24 -261 -19
-268 -20 -268 -41 0 -13 8 -19 23 -20 16 -1 18 -2 4 -6 -11 -3 -17 -14 -17
-34 0 -16 3 -29 8 -28 4 0 106 10 227 23 121 12 222 21 224 19 14 -11 -28 -18
-186 -34 -98 -10 -198 -21 -221 -24 l-44 -7 7 -36 c11 -62 42 -119 67 -125 13
-4 56 -6 95 -6 81 0 93 -4 93 -32 0 -16 5 -18 25 -13 29 7 38 8 78 6 18 -1 26
-6 21 -13 -4 -7 -25 -9 -56 -7 -42 5 -48 3 -42 -11 4 -9 9 -29 12 -46 3 -16 9
-33 14 -36 6 -4 -2 -6 -16 -6 -24 0 -26 3 -26 40 0 50 -6 46 -13 -11 -3 -24
-1 -40 4 -36 5 3 9 1 9 -5 0 -11 -36 -25 -48 -17 -5 3 -16 -4 -25 -14 -15 -18
-14 -21 14 -57 17 -21 49 -55 72 -77 l42 -38 30 17 c17 10 55 31 86 47 31 16
85 53 121 82 l65 54 17 -31 c9 -18 22 -40 28 -50 17 -24 -3 -39 -84 -63 -57
-18 -98 -50 -98 -79 0 -7 -9 -24 -20 -38 l-21 -26 46 -26 c73 -43 187 -88 226
-89 20 0 47 5 60 11 26 13 178 73 184 73 5 0 20 -102 17 -114 -4 -11 86 -2
173 19 39 9 88 21 111 25 53 11 242 104 272 133 l22 23 -36 42 c-19 23 -33 42
-29 42 17 0 76 -31 71 -38 -2 -4 -1 -14 4 -21 26 -43 206 152 284 306 14 29
26 58 26 65 0 11 -113 94 -145 107 -18 7 -99 64 -133 93 -18 15 -42 28 -52 28
-13 0 -20 7 -20 20 0 14 -7 20 -22 20 -20 -1 -18 -5 20 -39 l42 -39 -37 -29
c-56 -44 -100 -71 -87 -53 7 8 16 42 22 75 8 49 8 64 -4 83 -30 46 -11 222 24
222 8 0 12 6 8 15 -3 8 1 18 8 22 7 5 21 23 30 41 9 17 20 32 25 32 13 0 1 43
-15 56 -10 8 -11 19 -4 45 6 19 10 56 10 82 0 27 5 57 10 67 7 13 7 21 0 25
-5 3 -10 18 -10 32 0 28 -36 93 -52 93 -13 0 -70 25 -139 61 -31 16 -69 29
-84 29 -52 0 -135 -32 -182 -69 -61 -48 -90 -106 -99 -198 -3 -40 -11 -73 -15
-73 -5 0 -9 -9 -9 -19 0 -11 -4 -22 -10 -26 -14 -8 -1 -35 15 -29 8 4 15 -3
17 -17 2 -16 13 -26 36 -33 17 -5 32 -15 32 -23 0 -14 -39 -34 -52 -26 -12 7
-10 -7 16 -96 13 -45 34 -94 47 -107 12 -13 21 -26 18 -28 -2 -2 -28 0 -56 3
-29 4 -58 4 -65 -1 -7 -4 -23 -8 -34 -8 -12 0 -25 -7 -28 -16 -5 -13 -2 -15
14 -11 13 3 20 0 20 -9 0 -8 -9 -14 -19 -14 -11 0 -26 -3 -34 -6 -11 -4 -16 2
-19 18 -2 15 -9 22 -20 20 -10 -2 -18 2 -18 8 0 6 -7 6 -20 -2 -17 -11 -18
-14 -5 -28 17 -19 20 -61 5 -76 -18 -18 1 -85 26 -96 13 -6 24 -15 24 -20 0
-11 -76 -79 -106 -94 -23 -12 -26 -11 -34 12 -13 34 -13 41 5 48 8 3 15 16 15
30 0 16 7 27 20 31 28 9 26 58 -3 88 -18 17 -28 21 -40 13 -24 -15 -29 -3 -20
45 l9 43 23 -23 c19 -19 25 -21 32 -10 15 24 4 34 -43 37 l-46 3 4 -78 4 -78
-20 37 c-11 20 -29 39 -40 43 -21 7 -28 49 -10 60 17 10 11 25 -9 25 -15 0
-21 -8 -23 -35 -2 -24 -7 -32 -15 -27 -9 6 -12 136 -14 515 -2 279 -7 507 -11
507 -5 0 -11 -7 -15 -16z m842 -337 c40 -22 40 -23 42 -85 1 -35 7 -71 15 -80
11 -15 11 -15 -2 -6 -8 6 -38 17 -67 24 -60 16 -120 3 -154 -31 l-21 -21 -14
21 c-12 16 -26 21 -59 21 -24 0 -47 -5 -50 -10 -11 -18 -25 0 -25 34 0 37 10
51 62 89 91 67 201 85 273 44z m-888 -204 c-2 -16 -4 -3 -4 27 0 30 2 43 4 28
2 -16 2 -40 0 -55z m851 10 c-10 -2 -26 -2 -35 0 -10 3 -2 5 17 5 19 0 27 -2
18 -5z m-322 -30 c-10 -10 -19 5 -10 18 6 11 8 11 12 0 2 -7 1 -15 -2 -18z
m87 20 c-7 -2 -21 -2 -30 0 -10 3 -4 5 12 5 17 0 24 -2 18 -5z m377 -36 c0
-14 -30 -43 -78 -76 -25 -17 -40 -21 -60 -15 -27 7 -26 7 13 19 24 7 44 20 50
33 5 12 17 22 26 22 9 0 19 9 22 21 6 21 27 18 27 -4z m-260 -44 c0 -8 12 -25
26 -38 20 -18 23 -25 11 -25 -9 0 -18 4 -22 9 -6 11 -70 3 -100 -12 -19 -9
-19 -9 -4 9 9 10 27 39 39 63 21 42 23 44 36 26 8 -10 14 -25 14 -32z m-190
27 c0 -5 -4 -10 -9 -10 -6 0 -13 5 -16 10 -3 6 1 10 9 10 9 0 16 -4 16 -10z
m360 -19 c-8 -16 -20 -21 -54 -21 -27 0 -48 6 -56 15 -16 19 2 20 30 3 14 -9
23 -10 28 -3 8 11 55 34 60 30 2 -2 -1 -13 -8 -24z m-250 3 c0 -18 -34 -34
-74 -34 -36 0 -46 4 -46 16 0 13 7 16 33 12 17 -3 41 -2 52 3 25 10 35 11 35
3z m345 -33 c3 -5 1 -12 -5 -16 -5 -3 -10 1 -10 9 0 18 6 21 15 7z m-1008 -73
c-2 -13 -4 -5 -4 17 -1 22 1 32 4 23 2 -10 2 -28 0 -40z m813 -28 c0 -22 2
-21 -58 -25 -47 -4 -48 10 -2 20 16 4 32 11 35 16 11 16 25 10 25 -11z m-150
-7 c32 -16 33 -17 11 -24 -26 -10 -61 8 -54 28 6 16 3 16 43 -4z m-673 -165
c-2 -13 -4 -5 -4 17 -1 22 1 32 4 23 2 -10 2 -28 0 -40z m668 -48 c7 -12 -88
-12 -125 0 -18 6 -4 8 47 9 39 1 75 -3 78 -9z m15 -100 c0 -5 -4 -10 -10 -10
-5 0 -10 5 -10 10 0 6 5 10 10 10 6 0 10 -4 10 -10z m-260 -49 c0 -3 -9 -12
-19 -18 -15 -10 -22 -9 -31 2 -6 8 -9 18 -6 23 6 10 56 4 56 -7z m-540 -16 c0
-22 -4 -25 -32 -24 -24 1 -27 3 -10 6 14 3 22 12 22 24 0 10 5 19 10 19 6 0
10 -11 10 -25z m-133 -1 c-3 -3 -12 -4 -19 -1 -8 3 -5 6 6 6 11 1 17 -2 13 -5z
m-100 -10 c-3 -3 -12 -4 -19 -1 -8 3 -5 6 6 6 11 1 17 -2 13 -5z m407 -130
c33 -65 46 -79 80 -95 23 -10 49 -19 59 -19 20 0 23 16 5 23 -7 3 -3 6 10 6
29 1 28 -8 -7 -49 -22 -27 -32 -32 -42 -24 -19 15 -87 25 -94 13 -4 -5 -17 -9
-29 -9 -17 0 -25 7 -28 25 -6 29 -2 35 24 35 22 0 23 8 4 29 -8 9 -26 42 -39
73 -26 59 -27 58 13 67 3 0 23 -33 44 -75z m-134 -158 c0 -9 -30 -14 -35 -6
-4 6 3 10 14 10 12 0 21 -2 21 -4z m1000 -127 c56 -20 79 -27 92 -28 4 -1 7
-11 6 -23 -3 -27 -34 -62 -43 -48 -4 6 -15 10 -26 10 -10 0 -19 4 -19 9 0 5
-9 11 -20 14 -11 3 -20 13 -20 22 0 9 5 13 10 10 6 -3 10 -2 10 4 0 15 -16 22
-34 15 -11 -4 -14 -13 -10 -29 4 -15 0 -24 -11 -29 -20 -7 -38 2 -29 15 3 5
10 7 15 4 21 -14 7 14 -15 28 -13 9 -26 25 -29 37 -5 19 -2 20 31 14 21 -3 62
-15 92 -25z m-440 -39 c0 -5 -4 -10 -10 -10 -5 0 -10 5 -10 10 0 6 5 10 10 10
6 0 10 -4 10 -10z m20 -44 c0 -22 -17 -30 -182 -90 -146 -53 -198 -63 -198
-36 0 4 53 27 118 51 64 23 144 53 177 65 71 27 85 29 85 10z m390 4 c0 -5 -5
-10 -11 -10 -5 0 -7 5 -4 10 3 6 8 10 11 10 2 0 4 -4 4 -10z m-65 -60 c18 -8
17 -9 -7 -9 -16 -1 -28 4 -28 9 0 12 8 12 35 0z m69 -19 c18 -7 18 -8 3 -14
-9 -3 -17 -2 -17 3 0 5 -8 11 -17 13 -12 3 -13 5 -3 5 8 0 24 -3 34 -7z"/>
<path d="M740 1841 c0 -6 5 -13 10 -16 6 -3 10 1 10 9 0 9 -4 16 -10 16 -5 0
-10 -4 -10 -9z"/>
<path d="M377 1778 c-14 -7 -17 -17 -12 -35 5 -23 3 -25 -19 -21 -17 4 -23 1
-19 -9 6 -14 49 -11 65 5 5 5 8 23 6 40 -3 27 -5 29 -21 20z"/>
<path d="M1600 1781 c0 -5 -3 -16 -6 -25 -8 -20 6 -21 31 -2 18 13 18 14 -3
25 -13 7 -22 8 -22 2z"/>
<path d="M1601 1714 c0 -11 3 -14 6 -6 3 7 2 16 -1 19 -3 4 -6 -2 -5 -13z"/>
<path d="M270 1650 c0 -5 7 -7 15 -4 8 4 15 8 15 10 0 2 -7 4 -15 4 -8 0 -15
-4 -15 -10z"/>
<path d="M740 1590 c0 -5 5 -10 11 -10 5 0 7 5 4 10 -3 6 -8 10 -11 10 -2 0
-4 -4 -4 -10z"/>
<path d="M1621 1574 c-1 -24 24 -51 33 -35 4 5 2 12 -4 16 -5 3 -10 3 -11 -2
-1 -4 -5 3 -9 17 -7 22 -8 23 -9 4z"/>
<path d="M740 1540 c0 -5 5 -10 11 -10 5 0 7 5 4 10 -3 6 -8 10 -11 10 -2 0
-4 -4 -4 -10z"/>
<path d="M1786 1514 c-18 -18 -21 -34 -6 -34 6 0 10 7 10 15 0 17 16 20 25 5
3 -5 10 -10 16 -10 16 0 10 19 -10 30 -15 7 -23 6 -35 -6z"/>
<path d="M1640 1500 c0 -6 7 -10 15 -10 8 0 15 2 15 4 0 2 -7 6 -15 10 -8 3
-15 1 -15 -4z"/>
<path d="M750 1485 c7 -9 15 -13 17 -11 7 7 -7 26 -19 26 -6 0 -6 -6 2 -15z"/>
<path d="M1756 1472 c-2 -4 2 -12 9 -19 10 -10 16 -9 24 1 9 10 7 15 -9 19
-11 3 -22 2 -24 -1z"/>
<path d="M868 1430 c-12 -19 -38 -28 -38 -12 0 4 -12 8 -28 8 -15 1 -22 -1
-15 -3 7 -2 9 -11 6 -19 -3 -9 1 -14 12 -14 9 0 13 5 10 10 -3 6 -2 10 3 10
20 0 21 -30 2 -40 -11 -6 -20 -7 -20 -3 0 4 -5 2 -12 -5 -7 -7 -22 -12 -34
-12 -13 0 -26 -5 -30 -11 -4 -8 -9 -7 -16 2 -6 10 -8 7 -6 -11 2 -15 10 -26
22 -28 11 -3 16 0 12 7 -4 6 -3 11 3 11 5 0 13 -4 16 -10 3 -5 11 -10 18 -10
8 0 8 3 -1 12 -7 7 -12 17 -12 22 0 6 5 5 12 -2 20 -20 47 -14 54 12 5 22 9
23 77 21 88 -3 105 2 78 21 -11 8 -22 24 -24 37 -4 18 -5 17 -6 -7 -1 -21 -5
-27 -17 -22 -9 3 -22 6 -29 6 -8 0 -11 7 -8 19 7 27 -14 35 -29 11z"/>
<path d="M1594 1405 c4 -15 14 -34 21 -42 13 -13 15 -11 15 9 0 13 5 29 10 34
7 7 7 11 -2 11 -7 0 -22 4 -32 8 -17 7 -18 5 -12 -20z"/>
<path d="M802 1293 c9 -10 13 -23 11 -30 -3 -7 3 -10 16 -6 19 5 19 5 -2 29
-11 13 -25 24 -30 24 -6 0 -3 -8 5 -17z"/>
<path d="M1590 1276 c0 -9 7 -12 20 -9 11 3 20 9 20 14 0 5 -9 9 -20 9 -11 0
-20 -6 -20 -14z"/>
<path d="M1891 1251 c-11 -7 -11 -10 0 -17 8 -4 22 -9 33 -10 11 0 22 -6 24
-13 5 -15 22 -4 22 15 0 8 -10 14 -23 14 -13 0 -27 4 -33 10 -5 5 -15 5 -23 1z"/>
<path d="M965 1240 c27 -12 43 -12 25 0 -8 5 -22 9 -30 9 -10 0 -8 -3 5 -9z"/>
<path d="M858 1188 c3 -37 10 -53 30 -68 14 -11 30 -31 36 -43 8 -15 22 -23
44 -25 32 -3 47 -32 16 -32 -9 0 -14 -7 -12 -17 2 -10 10 -18 18 -18 11 0 16
13 18 46 2 39 -1 52 -22 74 -15 16 -26 32 -26 36 0 12 -38 49 -75 75 l-30 20
3 -48z"/>
<path d="M638 1190 c-15 -27 -15 -28 2 -33 24 -6 30 0 30 29 0 34 -14 36 -32
4z"/>
<path d="M701 1184 c0 -11 3 -14 6 -6 3 7 2 16 -1 19 -3 4 -6 -2 -5 -13z"/>
<path d="M1663 1183 c-7 -2 -9 -12 -6 -20 5 -12 2 -15 -10 -10 -20 8 -22 -4
-4 -22 10 -11 8 -11 -10 -2 -29 15 -40 14 -47 -5 -9 -24 2 -34 28 -24 21 7 23
6 19 -11 -3 -11 -9 -22 -14 -25 -5 -3 -3 -12 5 -19 10 -11 61 -16 195 -21 202
-8 199 -9 165 59 -22 42 -24 44 -33 28 -7 -11 -13 -11 -32 -1 -17 10 -24 10
-27 1 -2 -6 -8 -11 -14 -11 -6 0 -7 7 -4 17 4 9 -1 23 -11 33 -17 15 -20 15
-42 -6 -13 -12 -30 -20 -37 -17 -8 3 -14 1 -14 -5 0 -6 6 -13 13 -15 9 -4 9
-6 -1 -6 -8 -1 -10 -6 -6 -13 5 -10 4 -10 -5 -2 -6 6 -13 25 -16 43 -5 40 -12
50 -21 27 -5 -13 -9 -14 -21 -5 -11 10 -13 10 -11 -1 2 -7 -3 -15 -11 -18 -10
-3 -13 2 -9 22 6 28 0 36 -19 29z m167 -53 c-8 -5 -11 -10 -7 -10 5 0 5 -5 2
-10 -4 -6 -11 -8 -16 -4 -12 7 8 34 25 34 6 0 4 -5 -4 -10z m-98 -32 c-6 -6
-21 -7 -33 -3 -23 8 -23 8 -4 15 26 9 50 1 37 -12z m175 -10 c-3 -8 -6 -5 -6
6 -1 11 2 17 5 13 3 -3 4 -12 1 -19z m-15 -16 c3 -4 0 -12 -7 -19 -10 -9 -17
-6 -35 14 l-22 26 28 -7 c16 -4 32 -10 36 -14z m75 -4 c2 -17 0 -19 -7 -8 -5
8 -6 18 -4 22 8 12 10 10 11 -14z"/>
<path d="M610 1029 c0 -5 5 -7 10 -4 6 3 10 8 10 11 0 2 -4 4 -10 4 -5 0 -10
-5 -10 -11z"/>
<path d="M843 1033 c9 -2 25 -2 35 0 9 3 1 5 -18 5 -19 0 -27 -2 -17 -5z"/>
<path d="M725 1010 l-30 -8 33 -1 c17 0 32 4 32 9 0 6 -1 9 -2 9 -2 -1 -16 -5
-33 -9z"/>
<path d="M1611 990 c-14 -3 -27 -12 -29 -19 -3 -9 0 -12 10 -8 9 3 20 1 26 -5
8 -8 15 -8 26 1 11 9 15 9 18 0 6 -17 149 -25 177 -10 18 10 27 9 47 -4 29
-19 105 -17 112 3 2 7 -6 12 -20 12 -14 0 -47 7 -74 14 -52 16 -252 27 -293
16z"/>
<path d="M650 900 c0 -5 5 -10 11 -10 5 0 7 5 4 10 -3 6 -8 10 -11 10 -2 0 -4
-4 -4 -10z"/>
<path d="M1520 890 c0 -5 12 -10 26 -10 14 0 23 4 19 10 -3 6 -15 10 -26 10
-10 0 -19 -4 -19 -10z"/>
<path d="M1700 880 c0 -5 44 -11 98 -15 144 -9 152 -14 20 -11 -89 2 -118 -1
-122 -11 -4 -9 3 -13 19 -13 14 0 25 -4 25 -10 0 -13 47 -13 55 -1 3 6 35 7
74 4 68 -6 68 -5 73 21 5 24 3 26 -31 27 -20 0 -47 2 -61 4 -63 9 -150 12
-150 5z"/>
<path d="M665 870 c-3 -5 -1 -10 4 -10 6 0 11 5 11 10 0 6 -2 10 -4 10 -3 0
-8 -4 -11 -10z"/>
<path d="M795 700 c3 -5 8 -10 11 -10 2 0 4 5 4 10 0 6 -5 10 -11 10 -5 0 -7
-4 -4 -10z"/>
<path d="M110 551 c0 -6 4 -11 8 -11 5 0 13 -12 19 -27 l12 -28 -2 35 c-1 24
-7 36 -19 38 -10 2 -18 -1 -18 -7z"/>
<path d="M173 513 c7 -16 19 -23 38 -23 55 0 45 35 -12 42 -35 4 -36 3 -26
-19z"/>
<path d="M180 440 c0 -5 4 -10 9 -10 6 0 13 5 16 10 3 6 -1 10 -9 10 -9 0 -16
-4 -16 -10z"/>
</g>
</svg>
